<svg width="22" height="13" viewBox="0 0 22 13" fill="none" xmlns="http://www.w3.org/2000/svg">
<path d="M21 10.9C21 10.8 21 10.8 20.9 10.8C20.5 10.1 19.8 9.3 18.8 8.4C18.3 8 18 7.7 17.9 7.5C17.7 7.2 17.6 6.9 17.7 6.6C17.8 6.4 18.1 5.9 18.7 5.2C19 4.8 19.2 4.5 19.4 4.3C20.7 2.6 21.2 1.5 21.1 1.1L21 0.8C21 0.7 20.8 0.7 20.7 0.6C20.5 0.5 20.3 0.5 20 0.6H16.8C16.7 0.6 16.7 0.6 16.6 0.6C16.5 0.6 16.5 0.6 16.5 0.6H16.4L16.3 0.7C16.3 0.8 16.2 0.8 16.2 0.9C15.9 1.8 15.5 2.6 15 3.4C14.7 3.9 14.5 4.2 14.3 4.6C14 5 13.8 5.2 13.6 5.4C13.4 5.6 13.3 5.7 13.2 5.8C13.1 5.9 13 5.9 12.9 5.9C12.8 5.9 12.8 5.9 12.7 5.9C12.6 5.8 12.5 5.7 12.5 5.6C12.4 5.5 12.4 5.3 12.4 5.2C12.4 5 12.4 4.9 12.4 4.8C12.4 4.7 12.4 4.5 12.4 4.3C12.4 4.1 12.4 3.9 12.4 3.8C12.4 3.5 12.4 3.2 12.4 2.9C12.4 2.6 12.4 2.3 12.4 2.1C12.4 1.9 12.4 1.7 12.4 1.5C12.4 1.3 12.4 1.1 12.4 1C12.4 0.9 12.3 0.8 12.3 0.6C12.2 0.5 12.2 0.4 12.1 0.3C12 0.2 11.9 0.2 11.7 0.2C11.3 0.1 10.8 0 10.2 0C8.8 0 7.9 0.1 7.5 0.3C7.4 0.3 7.2 0.5 7.1 0.6C7 0.8 7 0.8 7.1 0.9C7.5 0.9 7.8 1.1 8 1.3L8.1 1.4C8.1 1.6 8.2 1.7 8.2 2C8.3 2.2 8.3 2.5 8.3 2.8C8.3 3.3 8.3 3.8 8.3 4.2C8.3 4.6 8.2 4.9 8.2 5.1C8.2 5.3 8.1 5.4 8.1 5.6C8 5.7 8 5.8 7.9 5.8C7.9 5.8 7.9 5.8 7.8 5.9C7.7 5.9 7.6 6 7.5 6C7.4 6 7.3 5.9 7.1 5.8C7.1 5.7 6.9 5.5 6.8 5.3C6.6 5.2 6.4 4.9 6.2 4.6C6 4.3 5.8 3.9 5.6 3.4L5.4 3.1C5.3 2.9 5.2 2.6 5 2.2C4.8 1.8 4.6 1.4 4.5 1.1C4.4 0.9 4.3 0.8 4.2 0.7H4.1C4.1 0.7 4 0.6 3.9 0.6C3.8 0.6 3.7 0.5 3.6 0.5H0.6C0.3 0.5 0.1 0.6 0 0.7V0.8C0 0.8 0 0.9 0 1C0 1.1 0 1.2 0.1 1.3C0.5 2.3 1 3.3 1.5 4.3C2 5.3 2.5 6 2.8 6.6C3.2 7.2 3.6 7.8 4 8.3C4.4 8.8 4.7 9.2 4.8 9.3C4.9 9.4 5 9.5 5.1 9.6L5.4 9.9C5.6 10.1 5.8 10.3 6.2 10.5C6.5 10.7 6.9 11 7.3 11.2C7.7 11.4 8.2 11.6 8.7 11.8C9.3 12 9.8 12 10.3 12H11.6C11.9 12 12.1 11.9 12.2 11.8V11.7C12.2 11.7 12.3 11.6 12.3 11.5C12.3 11.4 12.3 11.3 12.3 11.2C12.3 10.9 12.3 10.6 12.4 10.3C12.5 10 12.5 9.9 12.6 9.7C12.7 9.6 12.7 9.5 12.8 9.4C12.9 9.4 13 9.3 13 9.3H13.1C13.3 9.2 13.5 9.3 13.7 9.5C13.9 9.7 14.2 9.9 14.4 10.1C14.6 10.4 14.9 10.6 15.2 11C15.5 11.3 15.8 11.6 16 11.7L16.2 11.8C16.3 11.9 16.5 12 16.8 12C17 12.1 17.2 12.1 17.4 12.1H20.2C20.5 12.1 20.7 12.1 20.8 12C21 11.9 21 11.8 21.1 11.7C21.1 11.6 21.1 11.5 21.1 11.3C21.1 11 21.1 10.9 21 10.9Z" fill="#F7F7F7"/>
</svg>
