<svg width="24" height="14" viewBox="0 0 24 14" fill="none" xmlns="http://www.w3.org/2000/svg">
<path d="M22.625 0.925C22.7875 0.4 22.625 0 21.85 0H19.325C18.675 0 18.3875 0.3375 18.225 0.7125C18.225 0.7125 16.9375 3.85 15.1125 5.9C14.5125 6.4875 14.25 6.675 13.925 6.675C13.7625 6.675 13.5 6.4875 13.5 5.95V0.925C13.5 0.2875 13.35 0 12.8125 0H8.825C8.425 0 8.1875 0.3 8.1875 0.5875C8.1875 1.1875 9.125 1.3375 9.1875 3.05V6.775C9.1875 7.6 9.0375 7.75 8.725 7.75C7.875 7.75 5.775 4.5875 4.5375 0.9875C4.2875 0.2875 4.05 0 3.4 0H0.8625C0.15 0 5.96046e-08 0.3375 5.96046e-08 0.7125C5.96046e-08 1.3875 0.8625 4.7125 4 9.1125C6.0875 12.125 9.0375 13.75 11.725 13.75C13.3375 13.75 13.5375 13.3875 13.5375 12.7625V10.4875C13.5375 9.775 13.6875 9.625 14.2 9.625C14.575 9.625 15.2125 9.8125 16.7125 11.25C18.4375 12.975 18.7125 13.75 19.6875 13.75H22.2125C22.9375 13.75 23.3 13.3875 23.1 12.675C22.875 11.9625 22.05 10.925 20.9625 9.7C20.375 9.0125 19.4875 8.2625 19.2125 7.875C18.8375 7.4 18.95 7.1875 19.2125 6.75C19.2125 6.75 22.3 2.4125 22.625 0.925Z" fill="#A6A6A6"/>
</svg>
