<svg width="9" height="16" viewBox="0 0 9 16" fill="none" xmlns="http://www.w3.org/2000/svg">
<path fill-rule="evenodd" clip-rule="evenodd" d="M6.5 2.6C7 2.6 7.5 2.6 8 2.6C8.1 2.6 8.1 2.6 8.2 2.6V0.1C7.9 0.1 7.6 0.1 7.4 0C6.9 0 6.4 0 5.9 0C5.1 0 4.4 0.2 3.8 0.7C3 1.2 2.7 1.9 2.5 2.8C2.4 3.1 2.4 3.5 2.4 3.8C2.4 4.4 2.4 4.9 2.4 5.5V5.7H0V8.5H2.4V15.6H5.3V8.6H7.7C7.8 7.6 8 6.7 8.1 5.7C7.9 5.7 7.7 5.7 7.6 5.7C6.9 5.7 5.4 5.7 5.4 5.7C5.4 5.7 5.4 4.3 5.4 3.7C5.4 2.9 5.8 2.7 6.5 2.6Z" fill="#F7F7F7"/>
</svg>
