<svg width="20" height="16" viewBox="0 0 20 16" fill="none" xmlns="http://www.w3.org/2000/svg">
<path d="M20 2.27577C19.2563 2.57692 18.4637 2.77654 17.6375 2.87346C18.4875 2.405 19.1363 1.66885 19.4412 0.781538C18.6488 1.21769 17.7738 1.52577 16.8412 1.69769C16.0887 0.958077 15.0162 0.5 13.8462 0.5C11.5763 0.5 9.74875 2.20077 9.74875 4.28577C9.74875 4.58577 9.77625 4.87423 9.84375 5.14885C6.435 4.99538 3.41875 3.48731 1.3925 1.19C1.03875 1.75654 0.83125 2.405 0.83125 3.10308C0.83125 4.41385 1.5625 5.57577 2.6525 6.24846C1.99375 6.23692 1.3475 6.06038 0.8 5.78231C0.8 5.79385 0.8 5.80885 0.8 5.82385C0.8 7.66308 2.22125 9.19077 4.085 9.54269C3.75125 9.62692 3.3875 9.66731 3.01 9.66731C2.7475 9.66731 2.4825 9.65346 2.23375 9.60269C2.765 11.1015 4.2725 12.2035 6.065 12.2392C4.67 13.2465 2.89875 13.8535 0.98125 13.8535C0.645 13.8535 0.3225 13.8396 0 13.8015C1.81625 14.8827 3.96875 15.5 6.29 15.5C13.835 15.5 17.96 9.73077 17.96 4.73C17.96 4.56269 17.9538 4.40115 17.945 4.24077C18.7588 3.70769 19.4425 3.04192 20 2.27577Z" fill="#A6A6A6"/>
</svg>
