<svg width="23" height="17" viewBox="0 0 23 17" fill="none" xmlns="http://www.w3.org/2000/svg">
<path d="M3.6269 14H2.79296C2.00072 14 1 13.0545 1 12.3061V2.02424C1 1.27576 2.00072 1 2.79296 1H11.4659C12.2581 1 12.55 1.27576 12.55 2.02424V10.5727" stroke="#DE5433" stroke-width="2" stroke-miterlimit="10" stroke-linecap="round" stroke-linejoin="round"/>
<path d="M14.6504 14H9.40039" stroke="#DE5433" stroke-width="2" stroke-miterlimit="10" stroke-linecap="round" stroke-linejoin="round"/>
<path d="M12.5186 3.5H18.325L21.9907 8C21.9907 8 21.9907 12 21.9907 12.7037C21.9907 13.4074 22.1578 14 21.0717 14C20.9046 14 20.0691 14 20.0691 14" stroke="#DE5433" stroke-width="2" stroke-miterlimit="10" stroke-linecap="round" stroke-linejoin="round"/>
<path d="M6.77539 16C8.22514 16 9.40039 14.8807 9.40039 13.5C9.40039 12.1193 8.22514 11 6.77539 11C5.32564 11 4.15039 12.1193 4.15039 13.5C4.15039 14.8807 5.32564 16 6.77539 16Z" stroke="#DE5433" stroke-width="2" stroke-miterlimit="10" stroke-linecap="round" stroke-linejoin="round"/>
<path d="M17.2754 16C18.7251 16 19.9004 14.8807 19.9004 13.5C19.9004 12.1193 18.7251 11 17.2754 11C15.8256 11 14.6504 12.1193 14.6504 13.5C14.6504 14.8807 15.8256 16 17.2754 16Z" stroke="#DE5433" stroke-width="2" stroke-miterlimit="10" stroke-linecap="round" stroke-linejoin="round"/>
</svg>
