<svg width="38" height="49" viewBox="0 0 38 49" fill="none" xmlns="http://www.w3.org/2000/svg">
<path d="M0 0H26L38 12.5V49H0V0Z" fill="#A6A6A6"/>
<path d="M26 0L38 12H26V0Z" fill="#F7F7F7"/>
<path d="M5.07608 24.6H8.89208C9.80408 24.6 10.6081 24.776 11.3041 25.128C12.0081 25.472 12.5521 25.96 12.9361 26.592C13.3281 27.224 13.5241 27.96 13.5241 28.8C13.5241 29.64 13.3281 30.376 12.9361 31.008C12.5521 31.64 12.0081 32.132 11.3041 32.484C10.6081 32.828 9.80408 33 8.89208 33H5.07608V24.6ZM8.79608 31.404C9.63608 31.404 10.3041 31.172 10.8001 30.708C11.3041 30.236 11.5561 29.6 11.5561 28.8C11.5561 28 11.3041 27.368 10.8001 26.904C10.3041 26.432 9.63608 26.196 8.79608 26.196H7.02008V31.404H8.79608ZM19.0581 33.144C18.1861 33.144 17.3981 32.956 16.6941 32.58C15.9981 32.204 15.4501 31.688 15.0501 31.032C14.6581 30.368 14.4621 29.624 14.4621 28.8C14.4621 27.976 14.6581 27.236 15.0501 26.58C15.4501 25.916 15.9981 25.396 16.6941 25.02C17.3981 24.644 18.1861 24.456 19.0581 24.456C19.9301 24.456 20.7141 24.644 21.4101 25.02C22.1061 25.396 22.6541 25.916 23.0541 26.58C23.4541 27.236 23.6541 27.976 23.6541 28.8C23.6541 29.624 23.4541 30.368 23.0541 31.032C22.6541 31.688 22.1061 32.204 21.4101 32.58C20.7141 32.956 19.9301 33.144 19.0581 33.144ZM19.0581 31.488C19.5541 31.488 20.0021 31.376 20.4021 31.152C20.8021 30.92 21.1141 30.6 21.3381 30.192C21.5701 29.784 21.6861 29.32 21.6861 28.8C21.6861 28.28 21.5701 27.816 21.3381 27.408C21.1141 27 20.8021 26.684 20.4021 26.46C20.0021 26.228 19.5541 26.112 19.0581 26.112C18.5621 26.112 18.1141 26.228 17.7141 26.46C17.3141 26.684 16.9981 27 16.7661 27.408C16.5421 27.816 16.4301 28.28 16.4301 28.8C16.4301 29.32 16.5421 29.784 16.7661 30.192C16.9981 30.6 17.3141 30.92 17.7141 31.152C18.1141 31.376 18.5621 31.488 19.0581 31.488ZM29.1351 33.144C28.2791 33.144 27.5031 32.96 26.8071 32.592C26.1191 32.216 25.5751 31.7 25.1751 31.044C24.7831 30.38 24.5871 29.632 24.5871 28.8C24.5871 27.968 24.7831 27.224 25.1751 26.568C25.5751 25.904 26.1191 25.388 26.8071 25.02C27.5031 24.644 28.2831 24.456 29.1471 24.456C29.8751 24.456 30.5311 24.584 31.1151 24.84C31.7071 25.096 32.2031 25.464 32.6031 25.944L31.3551 27.096C30.7871 26.44 30.0831 26.112 29.2431 26.112C28.7231 26.112 28.2591 26.228 27.8511 26.46C27.4431 26.684 27.1231 27 26.8911 27.408C26.6671 27.816 26.5551 28.28 26.5551 28.8C26.5551 29.32 26.6671 29.784 26.8911 30.192C27.1231 30.6 27.4431 30.92 27.8511 31.152C28.2591 31.376 28.7231 31.488 29.2431 31.488C30.0831 31.488 30.7871 31.156 31.3551 30.492L32.6031 31.644C32.2031 32.132 31.7071 32.504 31.1151 32.76C30.5231 33.016 29.8631 33.144 29.1351 33.144Z" fill="white"/>
</svg>
