<svg width="38" height="49" viewBox="0 0 38 49" fill="none" xmlns="http://www.w3.org/2000/svg">
<path d="M0 0H26L38 12.5V49H0V0Z" fill="#DB4343"/>
<path d="M26 0L38 12H26V0Z" fill="#FF4545"/>
<path d="M10.007 24.6C10.751 24.6 11.395 24.724 11.939 24.972C12.491 25.22 12.915 25.572 13.211 26.028C13.507 26.484 13.655 27.024 13.655 27.648C13.655 28.264 13.507 28.804 13.211 29.268C12.915 29.724 12.491 30.076 11.939 30.324C11.395 30.564 10.751 30.684 10.007 30.684H8.315V33H6.371V24.6H10.007ZM9.899 29.1C10.483 29.1 10.927 28.976 11.231 28.728C11.535 28.472 11.687 28.112 11.687 27.648C11.687 27.176 11.535 26.816 11.231 26.568C10.927 26.312 10.483 26.184 9.899 26.184H8.315V29.1H9.899ZM15.0429 24.6H18.8589C19.7709 24.6 20.5749 24.776 21.2709 25.128C21.9749 25.472 22.5189 25.96 22.9029 26.592C23.2949 27.224 23.4909 27.96 23.4909 28.8C23.4909 29.64 23.2949 30.376 22.9029 31.008C22.5189 31.64 21.9749 32.132 21.2709 32.484C20.5749 32.828 19.7709 33 18.8589 33H15.0429V24.6ZM18.7629 31.404C19.6029 31.404 20.2709 31.172 20.7669 30.708C21.2709 30.236 21.5229 29.6 21.5229 28.8C21.5229 28 21.2709 27.368 20.7669 26.904C20.2709 26.432 19.6029 26.196 18.7629 26.196H16.9869V31.404H18.7629ZM26.9009 26.16V28.38H30.7889V29.94H26.9009V33H24.9569V24.6H31.3049V26.16H26.9009Z" fill="white"/>
</svg>
