<svg width="38" height="49" viewBox="0 0 38 49" fill="none" xmlns="http://www.w3.org/2000/svg">
<path d="M0 0H26L38 12.5V49H0V0Z" fill="#14161A"/>
<path d="M26 0L38 12H26V0Z" fill="#595959"/>
<path d="M15.9113 31.416V33H8.56733V31.74L13.1753 26.184H8.66333V24.6H15.7313V25.86L11.1353 31.416H15.9113ZM17.1581 24.6H19.1021V33H17.1581V24.6ZM24.7316 24.6C25.4756 24.6 26.1196 24.724 26.6636 24.972C27.2156 25.22 27.6396 25.572 27.9356 26.028C28.2316 26.484 28.3796 27.024 28.3796 27.648C28.3796 28.264 28.2316 28.804 27.9356 29.268C27.6396 29.724 27.2156 30.076 26.6636 30.324C26.1196 30.564 25.4756 30.684 24.7316 30.684H23.0396V33H21.0956V24.6H24.7316ZM24.6236 29.1C25.2076 29.1 25.6516 28.976 25.9556 28.728C26.2596 28.472 26.4116 28.112 26.4116 27.648C26.4116 27.176 26.2596 26.816 25.9556 26.568C25.6516 26.312 25.2076 26.184 24.6236 26.184H23.0396V29.1H24.6236Z" fill="white"/>
</svg>
