<svg width="90" height="126" viewBox="0 0 90 126" fill="none" xmlns="http://www.w3.org/2000/svg">
<g clip-path="url(#clip0)">
<path fill-rule="evenodd" clip-rule="evenodd" d="M42.137 88.1667H4.07068L42.137 0V88.1667ZM42.082 107.056V126L85.0442 107.056H42.082ZM85.0992 104.167V94.3889H88.3998L89.775 91.1667H78.9382H73.6023C72.6121 91.1667 71.0719 91.3333 69.9717 92.2778C68.7615 93.3889 68.4864 95.1667 68.4864 97.7778C68.4864 99.5 68.5965 101.611 69.8067 102.889C70.4668 103.556 71.677 104.167 73.6023 104.167H77.2329L78.6081 100.944H75.8027C74.7575 100.944 72.7222 100.833 72.7222 99.2778C72.7222 98.0555 72.7222 97.3333 72.7222 96.3333C72.7222 94.3333 74.4274 94.3889 76.0777 94.3889H78.6081H80.9185V104.167H85.0992ZM60.8952 99H64.8008L66.066 96.0555H60.9502C61.1152 94.2778 62.7105 94.3889 64.2507 94.3889H66.7812L68.1564 91.1667H61.7203C60.7301 91.1667 59.1899 91.3333 58.0897 92.2778C56.8795 93.3889 56.6045 95.1667 56.6045 97.7778C56.6045 99.5 56.7145 101.611 57.9247 102.889C58.5848 103.556 59.795 104.167 61.7203 104.167H65.3509L66.7262 100.944H63.9207C62.8755 100.944 60.8402 100.833 60.8402 99.2778L60.8952 99ZM7.26121 96.0555H3.46558L2.20037 99H7.26121C7.26121 101 5.55593 100.944 3.90565 100.944H1.37523L0 104.167H6.43608C7.42624 104.167 8.9665 104 10.0667 103.056C11.2769 101.944 11.5519 100.167 11.5519 97.5555C11.5519 95.8333 11.4419 93.7222 10.2317 92.4444C9.5716 91.7778 8.3614 91.1667 6.43608 91.1667H2.80547L1.43024 94.3889H4.23571C5.22587 94.3333 7.26121 94.4444 7.26121 96.0555ZM71.2919 46.9444C67.1112 47 64.0307 48.7222 61.9954 52C61.6103 48.0556 58.0897 45.0556 53.744 42.2778C58.9148 43.7778 61.7753 45.7778 62.9305 48.2778C64.8558 46.4444 67.3863 45.6111 71.2919 46.9444ZM46.2627 96.0555C46.2627 95.4444 46.2627 94.9444 46.2627 94.3889C47.3079 94.3889 48.2981 94.3889 49.3432 94.3889C50.8835 94.3889 50.9935 96.0555 49.3432 96.0555H46.2627ZM42.137 104.111C45.1625 104.111 47.858 104.111 50.8835 104.111C53.5239 104.111 54.8992 103.222 54.8992 100.444C54.8992 99.2778 54.4041 97.6111 52.6438 97.4444V97.3889C54.074 97.2778 54.5691 95.5555 54.5691 94.7222C54.5691 92.0555 52.8088 91.0555 50.2234 91.0555C47.2529 91.0555 45.0525 91.0555 42.082 91.0555C42.137 95.4444 42.137 99.7778 42.137 104.111ZM49.5083 99C51.1586 99 51.3236 100.944 49.3983 100.944C48.3531 100.944 47.3079 100.944 46.2627 100.944C46.2627 100.278 46.2627 99.6667 46.2627 99C46.2627 98.9444 49.2332 99 49.5083 99ZM26.0193 91.1111H21.8386V96H17.1629V91.1111H12.9822V104.111H17.1629V98.9444H21.8386V104.111H26.0193V91.1111ZM27.8347 104.111C30.5301 104.111 33.2806 104.111 35.976 104.111C40.1017 104.111 40.6518 101 40.6518 97.5C40.6518 93.9444 39.7166 91.0555 35.646 91.0555C33.0055 91.0555 30.4201 91.0555 27.7796 91.0555C27.8347 95.4444 27.8347 99.7778 27.8347 104.111ZM32.0154 94.2778C33.1155 94.2778 34.7658 94.1111 35.5909 94.8333C36.086 95.2778 36.4711 96.1111 36.4711 97.5555C36.4711 99.3889 36.086 100 35.921 100.222C35.1509 101.167 33.2256 101 32.0704 101C32.0154 98.7222 32.0154 96.5 32.0154 94.2778Z" fill="white"/>
</g>
<defs>
<clipPath id="clip0">
<rect width="89.775" height="126" fill="white"/>
</clipPath>
</defs>
</svg>
