<svg width="47" height="55" viewBox="0 0 47 55" fill="none" xmlns="http://www.w3.org/2000/svg">
<circle cx="23.5" cy="23.5" r="23.5" fill="#DE5433"/>
<path d="M23.8285 53.207C23.8285 48.3062 16.458 45.8692 13.0457 44.5586H23.8285V53.207Z" fill="#DE5433"/>
<path d="M23.8283 53.207C23.8283 48.3062 30.565 45.8691 33.9407 44.5586H23.8283V53.207Z" fill="#DE5433"/>
<path fill-rule="evenodd" clip-rule="evenodd" d="M23.7953 29.4907H14.0429L23.7953 5V29.4907ZM23.7812 34.7377V40L34.788 34.7377H23.7812ZM34.8021 33.9352V31.2191H35.6477L36 30.3241H33.2237H31.8566C31.6029 30.3241 31.2083 30.3704 30.9265 30.6327C30.6164 30.9414 30.546 31.4352 30.546 32.1605C30.546 32.6389 30.5741 33.2253 30.8842 33.5802C31.0533 33.7654 31.3634 33.9352 31.8566 33.9352H32.7868L33.1391 33.0401H32.4203C32.1526 33.0401 31.6311 33.0093 31.6311 32.5772C31.6311 32.2377 31.6311 32.037 31.6311 31.7593C31.6311 31.2037 32.068 31.2191 32.4908 31.2191H33.1391H33.731V33.9352H34.8021ZM28.6011 32.5H29.6017L29.9259 31.6821H28.6152C28.6575 31.1883 29.0662 31.2191 29.4608 31.2191H30.1091L30.4614 30.3241H28.8125C28.5588 30.3241 28.1642 30.3704 27.8824 30.6327C27.5723 30.9414 27.5018 31.4352 27.5018 32.1605C27.5018 32.6389 27.53 33.2253 27.8401 33.5802C28.0092 33.7654 28.3192 33.9352 28.8125 33.9352H29.7426L30.095 33.0401H29.3762C29.1085 33.0401 28.587 33.0093 28.587 32.5772L28.6011 32.5ZM14.8603 31.6821H13.8879L13.5637 32.5H14.8603C14.8603 33.0556 14.4234 33.0401 14.0006 33.0401H13.3523L13 33.9352H14.6489C14.9026 33.9352 15.2972 33.8889 15.579 33.6265C15.8891 33.3179 15.9596 32.8241 15.9596 32.0988C15.9596 31.6204 15.9314 31.0339 15.6213 30.679C15.4522 30.4938 15.1422 30.3241 14.6489 30.3241H13.7187L13.3664 31.2191H14.0852C14.3388 31.2037 14.8603 31.2346 14.8603 31.6821ZM31.2647 18.0401C30.1936 18.0556 29.4044 18.5339 28.883 19.4444C28.7843 18.3488 27.8824 17.5154 26.769 16.7438C28.0937 17.1605 28.8266 17.716 29.1225 18.4105C29.6158 17.9012 30.2641 17.6698 31.2647 18.0401ZM24.8523 31.6821C24.8523 31.5123 24.8523 31.3735 24.8523 31.2191C25.1201 31.2191 25.3738 31.2191 25.6415 31.2191C26.0362 31.2191 26.0643 31.6821 25.6415 31.6821H24.8523ZM23.7953 33.9198C24.5705 33.9198 25.261 33.9198 26.0362 33.9198C26.7126 33.9198 27.065 33.6728 27.065 32.9012C27.065 32.5772 26.9381 32.1142 26.4871 32.0679V32.0525C26.8536 32.0216 26.9804 31.5432 26.9804 31.3117C26.9804 30.571 26.5294 30.2932 25.867 30.2932C25.106 30.2932 24.5423 30.2932 23.7812 30.2932C23.7953 31.5123 23.7953 32.716 23.7953 33.9198ZM25.6838 32.5C26.1066 32.5 26.1489 33.0401 25.6556 33.0401C25.3879 33.0401 25.1201 33.0401 24.8523 33.0401C24.8523 32.8549 24.8523 32.6852 24.8523 32.5C24.8523 32.4846 25.6134 32.5 25.6838 32.5ZM19.6661 30.3086H18.595V31.6667H17.3971V30.3086H16.326V33.9198H17.3971V32.4846H18.595V33.9198H19.6661V30.3086ZM20.1311 33.9198C20.8217 33.9198 21.5263 33.9198 22.2169 33.9198C23.2739 33.9198 23.4148 33.0556 23.4148 32.0833C23.4148 31.0957 23.1752 30.2932 22.1324 30.2932C21.4559 30.2932 20.7935 30.2932 20.117 30.2932C20.1311 31.5123 20.1311 32.716 20.1311 33.9198ZM21.2022 31.1883C21.4841 31.1883 21.9069 31.142 22.1183 31.3426C22.2451 31.466 22.3438 31.6975 22.3438 32.0988C22.3438 32.608 22.2451 32.7778 22.2028 32.8395C22.0055 33.1019 21.5123 33.0556 21.2163 33.0556C21.2022 32.4228 21.2022 31.8056 21.2022 31.1883Z" fill="white"/>
</svg>
