<svg width="11" height="19" viewBox="0 0 11 19" fill="none" xmlns="http://www.w3.org/2000/svg">
<path fill-rule="evenodd" clip-rule="evenodd" d="M5.50007 2.87381C6.61924 2.87381 7.52933 3.78452 7.52933 4.90424C7.52933 6.02282 6.61924 6.93362 5.50007 6.93362C4.38206 6.93362 3.47083 6.02282 3.47083 4.90424C3.47083 3.78452 4.38206 2.87381 5.50007 2.87381ZM5.50007 9.80629C8.20344 9.80629 10.4011 7.6075 10.4011 4.90424C10.4011 2.1997 8.20344 0 5.50007 0C2.7973 0 0.5991 2.1997 0.5991 4.90424C0.5991 7.6075 2.7973 9.80629 5.50007 9.80629ZM7.48294 13.8065C8.48065 13.579 9.44288 13.1842 10.3289 12.627C10.9996 12.2041 11.2018 11.3172 10.7791 10.6461C10.357 9.97361 9.47094 9.77131 8.79909 10.1942C6.79161 11.4574 4.20682 11.4569 2.20049 10.1942C1.52866 9.77131 0.642618 9.97361 0.221076 10.6461C-0.201609 11.3176 -2.38419e-06 12.2041 0.670681 12.627C1.55672 13.1834 2.51892 13.579 3.51667 13.8065L0.776631 16.5478C0.216501 17.1088 0.216501 18.0182 0.777218 18.5792C1.05785 18.8594 1.425 18.9998 1.79211 18.9998C2.15982 18.9998 2.52752 18.8594 2.80818 18.5792L5.49951 15.8854L8.19312 18.5792C8.75328 19.1403 9.66223 19.1403 10.2229 18.5792C10.7842 18.0182 10.7842 17.1084 10.2229 16.5478L7.48294 13.8065Z" fill="#A6A6A6"/>
</svg>
