<svg width="71" height="71" viewBox="0 0 71 71" fill="none" xmlns="http://www.w3.org/2000/svg">
<path d="M56.2 33.6C56.3 33 56.3 32.5 56.3 31.9C56.4 24.2 56.6 17.1 56.6 17.1C56.6 17.1 44.4 16.7 44.4 5.8C44.4 5.8 35.9 5 30.8 5C25.7 5 17.2 5.8 17.2 5.8C17.3 16.7 5 17.1 5 17.1C5 17.1 5.2 24.2 5.3 31.9C6.9 59 30.8 65.9 30.8 65.9C30.8 65.9 32.7 65.4 35.4 64" stroke="#14161A" stroke-width="3" stroke-miterlimit="10" stroke-linecap="round" stroke-linejoin="round"/>
<path d="M48.2996 33.6C48.2996 33.4 48.2996 33.2 48.2996 33C48.3996 27.7 48.4996 22.9 48.4996 22.9C48.4996 22.9 40.0996 22.6 40.0996 15.1C40.0996 15.1 34.2996 14.5 30.7996 14.5C27.2996 14.5 21.4996 15.1 21.4996 15.1C21.4996 22.6 13.0996 22.9 13.0996 22.9C13.0996 22.9 13.1996 27.7 13.2996 33C14.3996 51.6 30.7996 56.4 30.7996 56.4C30.7996 56.4 31.6996 56.1 32.9996 55.5" stroke="#DE5433" stroke-width="3" stroke-miterlimit="10" stroke-linecap="round" stroke-linejoin="round"/>
<path d="M51.5004 65.9C59.0115 65.9 65.1004 59.811 65.1004 52.2999C65.1004 44.7889 59.0115 38.7 51.5004 38.7C43.9893 38.7 37.9004 44.7889 37.9004 52.2999C37.9004 59.811 43.9893 65.9 51.5004 65.9Z" stroke="#14161A" stroke-width="3" stroke-miterlimit="10" stroke-linecap="round" stroke-linejoin="round"/>
<path d="M47.7002 51.7L51.6002 55.6L58.2002 49" stroke="#DE5433" stroke-width="3" stroke-miterlimit="10" stroke-linecap="round" stroke-linejoin="round"/>
</svg>
