<svg width="69" height="64" viewBox="0 0 69 64" fill="none" xmlns="http://www.w3.org/2000/svg">
<g clip-path="url(#clip0)">
<path d="M33.3996 29.2L63.3996 59.5L60.1996 62.7999L30.0996 32.4" stroke="#14161A" stroke-width="3" stroke-miterlimit="10" stroke-linecap="round" stroke-linejoin="round"/>
<path d="M56.7002 58.7999L59.8002 55.7" stroke="#14161A" stroke-width="2" stroke-miterlimit="10" stroke-linecap="round" stroke-linejoin="round"/>
<path d="M44.5004 25.3001L38.4004 19.1001" stroke="#14161A" stroke-width="2" stroke-miterlimit="10" stroke-linecap="round" stroke-linejoin="round"/>
<path d="M28.5997 18.3999L14.6997 4.49991C12.0997 1.89991 9.49973 3.49991 6.99973 5.99991C4.39973 8.59991 2.89973 11.1999 5.49973 13.6999L19.3997 27.5999C19.6997 27.4999 19.9997 27.4999 20.2997 27.4999C21.5997 27.4999 22.9997 28.0999 24.0997 29.0999C25.3997 30.3999 25.9997 32.1999 25.6997 33.6999L27.1997 35.1999L36.4997 25.8999L34.8997 24.2999C33.3997 24.5999 31.5997 24.0999 30.2997 22.7999C28.8997 21.6999 28.2997 19.9999 28.5997 18.3999Z" stroke="#DE5433" stroke-width="3" stroke-miterlimit="10" stroke-linecap="round" stroke-linejoin="round"/>
<path d="M41.6 28.3L44.5 25.3L46.5 23.3C48.2 21.6 51 21.6 52.6 23.3C53.7 24.4 53.9 26 53.7 27.5C53.3 30.3 54.1 31.1 54.1 31.1L56.4 33.4C56.8 33.8 57.5 33.8 57.9 33.4L67.1 24C67.5 23.6 67.5 22.9 67.1 22.4L65 20.2C65 20.2 64.2 19.4 61.5 19.8C60 20 58.4 19.8 57.3 18.7C55.6 17 55.6 14.2 57.3 12.5L51.2 6.30003C41.9 -3.29997 26 3.20003 26 3.20003C26 3.20003 34.8 4.20003 40.4 10.8C42.1 12.5 42.1 15.3 40.4 17L38.4 19" stroke="#14161A" stroke-width="3" stroke-miterlimit="10" stroke-linecap="round" stroke-linejoin="round"/>
<path d="M18.6 39L1.8 55.2C1.3 56 1 56.8 1 57.8C1 60.4 3.1 62.5 5.7 62.5C6.9 62.5 8 62.1 8.8 61.3L28.7 41.4" stroke="#14161A" stroke-width="3" stroke-miterlimit="10" stroke-linecap="round" stroke-linejoin="round"/>
</g>
<defs>
<clipPath id="clip0">
<rect width="68.6" height="63.8" fill="white"/>
</clipPath>
</defs>
</svg>
