<svg width="62" height="65" viewBox="0 0 62 65" fill="none" xmlns="http://www.w3.org/2000/svg">
<g clip-path="url(#clip0)">
<path d="M21.8004 42.3999L31.0004 50.4999L25.4004 54.3999L17.4004 46.9999" stroke="#14161A" stroke-width="2" stroke-miterlimit="10" stroke-linecap="round" stroke-linejoin="round"/>
<path d="M40.2998 51.1L44.6998 47" stroke="#14161A" stroke-width="2" stroke-miterlimit="10" stroke-linecap="round" stroke-linejoin="round"/>
<path d="M40.3 42.3999L31 50.5999L32.7 51.6999" stroke="#14161A" stroke-width="2" stroke-miterlimit="10" stroke-linecap="round" stroke-linejoin="round"/>
<path fill-rule="evenodd" clip-rule="evenodd" d="M33.4 1C33.6 1 33.7 1 33.9 1C33.8 1.3 33.8 1.7 33.7 1.9C33.3 2.9 33.6 3.7 34.6 4.2C35 4.4 35.5 4.6 35.9 4.7C37.1 5.1 38.4 5.4 39.7 5.8C42.5 6.9 44.3 8.8 44.6 11.8C44.8 13.2 44.7 14.6 44.7 16C44.7 17.9 44.7 19.9 44.7 21.8C44.7 22.3 44.8 22.8 45.4 23C45.8 23.2 45.9 23.6 45.8 24C45.4 26 45 28.1 44.6 30.1C44.5 30.7 39.4 38.2 39.5 38.8C39.6 40.1 40.3 41 40.5 42.3C40.5 42.7 42.2 43.1 42.6 43.3C43.1 43.5 43.4 44 43.6 44.5C43.8 45.2 44.1 46 44.3 46.7C44.4 47 44.6 47.2 44.9 47.4C46.8 48.4 48.7 49.4 50.5 50.4C53.5 52 56.5 53.6 59.5 55.1C60.3 55.5 60.6 56 60.6 56.8C60.6 58.4 60.6 60 60.6 61.6C60.6 62.3 60.4 62.9 59.7 63.3C48.9 63.3 38.2 63.3 27.4 63.3C18.9 63.3 10.5 63.3 2 63.3C1.2 63.1 1 62.5 1 61.8C1 60.2 1 58.5 1 56.9C1 56.1 1.3 55.6 2 55.3C4.2 54.2 6.4 53 8.7 51.8C11.4 50.4 14 49 16.7 47.5C16.9 47.4 17.2 47.1 17.3 46.8C17.6 46.1 17.8 45.3 18.1 44.5C18.3 44.1 20 43.7 20.4 43.4C20.8 43.1 21.6 42.8 21.7 42.2C21.8 41.1 22.5 40.3 22.7 39.3C22.8 38.4 17.8 32.3 17.5 31.3C17.2 30.1 16.8 28.9 16.6 27.8C16.3 26.6 16.2 25.4 15.9 24.2C15.8 23.8 15.9 23.3 16.3 23.1C16.9 22.8 17 22.3 17 21.7C17 18.7 17 15.6 17 12.6C17 11.8 17.1 11 17.4 10.3C18.1 8.3 19.6 6.9 21.4 6C24 4.8 26.7 3.7 29.4 2.6C30.6 2 32 1.5 33.4 1Z" stroke="#14161A" stroke-width="3" stroke-miterlimit="10" stroke-linecap="round" stroke-linejoin="round"/>
<path d="M42.8004 51.6001H31.9004V58.2001H42.8004V51.6001Z" stroke="#DE5433" stroke-width="3" stroke-miterlimit="10" stroke-linecap="round" stroke-linejoin="round"/>
<path d="M37.4004 51.5999V49.2" stroke="#DE5433" stroke-width="3" stroke-miterlimit="10" stroke-linecap="round" stroke-linejoin="round"/>
</g>
<defs>
<clipPath id="clip0">
<rect width="61.4" height="64.5" fill="white"/>
</clipPath>
</defs>
</svg>
